<?xml version="1.0" encoding="iso-8859-1"?>
<!-- Generator: Adobe Illustrator 19.0.0, SVG Export Plug-In . SVG Version: 6.00 Build 0)  -->
<svg version="1.1" id="Layer_1" xmlns="http://www.w3.org/2000/svg" xmlns:xlink="http://www.w3.org/1999/xlink" x="0px" y="0px"
	 viewBox="0 0 512.002 512.002" style="enable-background:new 0 0 512.002 512.002;" xml:space="preserve">
<g>
	<g>
		<path d="M316.757,244.676c1.602,1.601,3.7,2.401,5.799,2.401c2.099,0,4.199-0.8,5.8-2.402l19.809-19.814
			c12.978,18.05,22.837,37.976,29.351,59.356c0.982,3.222,3.835,5.516,7.192,5.784c3.16,0.253,6.31,0.377,9.452,0.377
			c31.173,0,61.134-12.312,83.373-34.542c21.201-21.21,33.44-49.386,34.466-79.334c0.132-3.861-2.447-7.291-6.194-8.234
			c-25.027-6.298-48.196-17.068-69.014-32.039l21.9-21.892c1.539-1.537,2.403-3.624,2.403-5.799c0-2.175-0.864-4.261-2.401-5.8
			l-48.484-48.494c-1.537-1.539-3.624-2.402-5.8-2.402c-2.176,0-4.26,0.864-5.8,2.402l-19.209,19.209
			c-2.105-3.571-4.103-7.184-5.953-10.82c-1.75-3.438-5.653-5.194-9.39-4.214c-20.102,5.273-38.534,15.868-53.303,30.637
			c-18.505,18.494-30.095,41.964-33.518,67.873c-0.44,3.331,1.196,6.593,4.128,8.232c1.354,0.757,2.689,1.53,4.014,2.31
			l-29.377,29.377l-29.377-29.377c1.329-0.782,2.664-1.555,4.011-2.306c2.936-1.637,4.575-4.9,4.136-8.232
			c-3.409-25.893-14.995-49.363-33.506-67.874c-14.767-14.767-33.199-25.362-53.304-30.639c-3.734-0.981-7.635,0.772-9.386,4.204
			c-1.862,3.649-3.864,7.264-5.966,10.829l-19.2-19.208c-1.537-1.539-3.624-2.403-5.798-2.403c0,0,0,0-0.001,0
			c-2.175,0-4.261,0.864-5.798,2.402l-48.494,48.494c-1.538,1.538-2.402,3.624-2.402,5.8c0,2.176,0.865,4.261,2.403,5.8
			l13.541,13.537c1.601,1.601,3.699,2.401,5.797,2.401c2.098,0,4.199-0.802,5.8-2.403c3.202-3.203,3.202-8.395-0.002-11.597
			l-7.74-7.738l36.895-36.893l15.897,15.904c-6.752,9.574-14.357,18.624-22.69,26.957c-5.731,5.731-11.848,11.174-18.187,16.178
			C59.932,148.573,34.217,161.219,6.2,168.269c-3.747,0.943-6.328,4.373-6.195,8.234c1.026,29.952,13.271,58.128,34.478,79.335
			c22.229,22.231,52.18,34.542,83.356,34.539c3.14,0,6.297-0.125,9.455-0.377c3.358-0.268,6.21-2.562,7.192-5.784
			c6.508-21.359,16.367-41.281,29.353-59.353l41.779,41.779c-2.298,3.603-4.96,6.959-7.965,9.962L69.219,405.029
			c-3.705,3.705-5.743,8.627-5.739,13.863c0.003,5.23,2.044,10.144,5.739,13.831l21.686,21.686
			c3.694,3.702,8.608,5.744,13.837,5.747c0.004,0,0.008,0,0.013,0c5.23,0,10.149-2.038,13.851-5.739L256,317.026l137.395,137.385
			c3.698,3.706,8.618,5.746,13.855,5.746s10.156-2.041,13.846-5.741l21.673-21.685c3.707-3.696,5.748-8.614,5.748-13.847
			c0-5.234-2.04-10.153-5.739-13.842L320.332,282.575c-3.203-3.203-8.395-3.205-11.597-0.001c-3.204,3.203-3.204,8.394-0.001,11.597
			l122.455,122.475c0.808,0.806,0.929,1.747,0.929,2.236c0,0.489-0.12,1.43-0.937,2.245l-21.689,21.7
			c-0.806,0.807-1.751,0.928-2.242,0.928s-1.436-0.12-2.25-0.936L267.599,305.427l40.707-40.707
			c3.204-3.203,3.204-8.394,0.001-11.597c-3.203-3.203-8.395-3.204-11.597,0L107.008,442.818c-0.814,0.813-1.76,0.935-2.254,0.935
			c0,0-0.001,0-0.002,0c-0.489,0-1.43-0.121-2.243-0.935l-21.701-21.7c-0.807-0.806-0.928-1.747-0.928-2.236
			c0-0.493,0.12-1.44,0.935-2.255l128.434-128.424c4.253-4.252,7.998-9.03,11.123-14.184c0.979-1.606,1.882-3.228,2.689-4.823
			c0.037-0.069,0.074-0.138,0.109-0.208c1.849-3.636,3.417-7.465,4.661-11.38c0.906-2.854,2.039-5.667,3.366-8.357
			c2.846-5.768,6.609-11.013,11.181-15.586l57.085-57.085c9.559,6.729,18.612,14.332,26.965,22.685
			c4.04,4.04,7.899,8.254,11.555,12.576l-21.231,21.237C313.553,236.282,313.554,241.474,316.757,244.676z M156.528,207.313
			c-15.836,20.068-27.923,42.457-35.978,66.628c-27.82,0.723-54.69-9.922-74.468-29.7c-16.725-16.725-26.976-38.484-29.258-61.839
			c27.711-7.879,53.237-20.927,75.959-38.84c0.002-0.001,0.003-0.003,0.005-0.004c6.838-5.4,13.44-11.273,19.622-17.454
			c10.688-10.687,20.284-22.461,28.522-34.991c0.017-0.026,0.034-0.051,0.051-0.078c3.188-4.844,6.2-9.838,8.993-14.911
			c14.887,4.951,28.506,13.353,39.688,24.534c14.647,14.648,24.257,32.897,27.993,53.054c-2.946,1.748-5.835,3.558-8.626,5.405
			c-12.533,8.214-24.329,17.819-35.058,28.548C167.783,193.856,161.912,200.469,156.528,207.313z M230.785,222.065
			c-5.844,5.844-10.653,12.549-14.297,19.931c-1.386,2.813-2.596,5.732-3.627,8.696l-38.846-38.846
			c3.676-4.344,7.537-8.563,11.555-12.58c8.347-8.347,17.394-15.946,26.963-22.683L244.4,208.45L230.785,222.065z M404.406,71.644
			l36.886,36.895l-17.529,17.521c-4.346-3.682-8.563-7.542-12.573-11.553c-8.333-8.333-15.937-17.381-22.69-26.956L404.406,71.644z
			 M303,159.138c-2.786-1.844-5.681-3.656-8.655-5.421c3.746-20.172,13.36-38.423,28.003-53.058
			c11.184-11.184,24.8-19.586,39.682-24.534c2.786,5.068,5.804,10.073,9.007,14.941c8.247,12.549,17.854,24.338,28.554,35.038
			c6.176,6.176,12.783,12.046,19.64,17.449c22.705,17.918,48.225,30.968,75.947,38.851c-2.282,23.352-12.529,45.112-29.246,61.838
			c-19.789,19.778-46.669,30.446-74.481,29.701c-8.06-24.192-20.146-46.58-35.965-66.611c-5.343-6.807-11.216-13.422-17.458-19.662
			C327.298,176.936,315.503,167.331,303,159.138z"/>
	</g>
</g>
<g>
	<g>
		<path d="M412.535,164.421c-3.204-3.203-8.395-3.203-11.598,0l-27.883,27.883c-3.203,3.203-3.203,8.395,0,11.597
			c1.601,1.602,3.7,2.402,5.798,2.402c2.098,0,4.198-0.8,5.8-2.402l27.883-27.883C415.738,172.815,415.738,167.622,412.535,164.421z
			"/>
	</g>
</g>
<g>
	<g>
		<path d="M132.637,192.303l-27.883-27.883c-3.203-3.203-8.395-3.203-11.597,0c-3.203,3.203-3.203,8.395,0,11.597L121.04,203.9
			c1.601,1.601,3.7,2.402,5.799,2.402c2.098,0,4.198-0.8,5.798-2.402C135.84,200.697,135.84,195.505,132.637,192.303z"/>
	</g>
</g>
<g>
</g>
<g>
</g>
<g>
</g>
<g>
</g>
<g>
</g>
<g>
</g>
<g>
</g>
<g>
</g>
<g>
</g>
<g>
</g>
<g>
</g>
<g>
</g>
<g>
</g>
<g>
</g>
<g>
</g>
</svg>
